<?xml version="1.0" encoding="UTF-8" standalone="no"?>
<!-- Created with Inkscape (http://www.inkscape.org/) -->

<svg
   xmlns:dc="http://purl.org/dc/elements/1.1/"
   xmlns:cc="http://creativecommons.org/ns#"
   xmlns:rdf="http://www.w3.org/1999/02/22-rdf-syntax-ns#"
   xmlns:svg="http://www.w3.org/2000/svg"
   xmlns="http://www.w3.org/2000/svg"
   xmlns:sodipodi="http://sodipodi.sourceforge.net/DTD/sodipodi-0.dtd"
   xmlns:inkscape="http://www.inkscape.org/namespaces/inkscape"
   width="100mm"
   height="100mm"
   viewBox="0 0 100 100"
   version="1.1"
   id="svg976"
   inkscape:version="0.92.3 (2405546, 2018-03-11)"
   sodipodi:docname="icono.svg">
  <defs
     id="defs970" />
  <sodipodi:namedview
     id="base"
     pagecolor="#ffffff"
     bordercolor="#666666"
     borderopacity="1.0"
     inkscape:pageopacity="0.0"
     inkscape:pageshadow="2"
     inkscape:zoom="0.7"
     inkscape:cx="-143.55282"
     inkscape:cy="213.03393"
     inkscape:document-units="mm"
     inkscape:current-layer="layer1"
     showgrid="false"
     inkscape:window-width="1366"
     inkscape:window-height="684"
     inkscape:window-x="-8"
     inkscape:window-y="-8"
     inkscape:window-maximized="1" />
  <metadata
     id="metadata973">
    <rdf:RDF>
      <cc:Work
         rdf:about="">
        <dc:format>image/svg+xml</dc:format>
        <dc:type
           rdf:resource="http://purl.org/dc/dcmitype/StillImage" />
        <dc:title />
      </cc:Work>
    </rdf:RDF>
  </metadata>
  <g
     inkscape:label="Capa 1"
     inkscape:groupmode="layer"
     id="layer1"
     transform="translate(0,-197)">
    <g
       id="g4579"
       transform="matrix(1.3415344,0,0,1.3415344,-41.184402,52.4223)"
       style="fill:#0066ff;fill-rule:evenodd;stroke:none;stroke-width:0.10925205;stroke-miterlimit:4;stroke-dasharray:none">
      <g
         transform="matrix(14.133502,0,0,23.804338,-1022.8128,-3684.207)"
         id="g4545"
         style="fill:#0066ff;stroke:none;stroke-width:0.0059563;stroke-miterlimit:4;stroke-dasharray:none">
        <path
           sodipodi:nodetypes="cccccssccsccccccccc"
           inkscape:connector-curvature="0"
           id="path4518"
           style="font-style:normal;font-variant:normal;font-weight:bold;font-stretch:normal;font-size:medium;line-height:0px;font-family:'Myra 4F Caps';-inkscape-font-specification:'Myra 4F Caps Bold';letter-spacing:0px;word-spacing:0px;fill:#0066ff;fill-opacity:1;stroke:none;stroke-width:0.0059563;stroke-linecap:butt;stroke-linejoin:miter;stroke-miterlimit:4;stroke-dasharray:none;stroke-opacity:1"
           d="m 77.839184,161.70157 v -2.31511 h -0.330729 l -0.826823,0.91845 -0.826823,-0.91845 H 75.52408 c -0.575469,0 -0.84336,0.19953 -0.84336,0.60963 0,0.3605 0.218282,0.66477 0.687917,0.66477 v -0.46302 c -0.135599,0 -0.198438,-0.0959 -0.198438,-0.20175 0,-0.12898 0.112448,-0.1466 0.353881,-0.1466 v 1.85208 h 0.496093 v -1.52565 l 0.496094,0.69123 h 0.330729 l 0.496094,-0.69123 v 1.52565 z" />
      </g>
    </g>
    <g
       id="g4565"
       transform="matrix(1.8389865,0,0,1.8389865,-119.00417,-2.6017558)"
       style="fill:#0066ff;fill-rule:evenodd;stroke:none;stroke-width:0.10925205;stroke-miterlimit:4;stroke-dasharray:none">
      <path
         sodipodi:nodetypes="ccssccccccccccsssc"
         d="m 116.35457,129.60209 -4.50536,-7.19721 c 2.32352,-0.76508 3.93865,-2.72021 3.93865,-6.0638 0,-4.56206 -3.00357,-6.57391 -6.51718,-6.57391 h -8.07561 c -7.649529,2.6843 -1.338396,4.2126 0,4.19367 v 15.64125 h 4.25032 v -6.80053 h 1.98349 l 4.08032,6.80053 z M 105.44539,118.8346 v -5.10038 h 3.82529 c 1.21843,0 2.26684,0.34014 2.26684,2.55014 0,2.26682 -1.10507,2.55024 -2.26684,2.55024 z"
         style="font-style:normal;font-variant:normal;font-weight:bold;font-stretch:normal;font-size:medium;line-height:0px;font-family:'Myra 4F Caps';-inkscape-font-specification:'Myra 4F Caps Bold';letter-spacing:0px;word-spacing:0px;fill:#0066ff;fill-opacity:1;stroke:none;stroke-width:0.10925205;stroke-linecap:butt;stroke-linejoin:miter;stroke-miterlimit:4;stroke-dasharray:none;stroke-opacity:1"
         id="path4522"
         inkscape:connector-curvature="0" />
    </g>
    <g
       id="g4574"
       transform="matrix(1.3415344,0,0,1.3415344,-62.045742,52.4223)"
       style="fill:#0066ff;fill-rule:evenodd;stroke:none;stroke-width:0.10925205;stroke-miterlimit:4;stroke-dasharray:none">
      <g
         transform="matrix(9.4965939,0,0,9.4965939,-669.75506,-1397.8273)"
         id="text4487-0"
         style="font-style:normal;font-weight:normal;font-size:3.80827522px;line-height:0px;font-family:sans-serif;letter-spacing:0px;word-spacing:0px;fill:#0066ff;fill-opacity:1;stroke:none;stroke-width:0.01275178;stroke-linecap:butt;stroke-linejoin:miter;stroke-miterlimit:4;stroke-dasharray:none;stroke-opacity:1"
         inkscape:transform-center-y="-35.071514"
         inkscape:transform-center-x="12.786474"
         aria-label="Scout">
        <path
           inkscape:connector-curvature="0"
           id="path4507"
           style="font-style:normal;font-variant:normal;font-weight:bold;font-stretch:normal;font-family:'Myra 4F Caps';-inkscape-font-specification:'Myra 4F Caps Bold';fill:#0066ff;stroke:none;stroke-width:0.01275178;stroke-miterlimit:4;stroke-dasharray:none"
           d="m 80.730481,164.31694 c 0.262771,0.23562 0.647407,0.3927 1.035851,0.3927 0.556008,0 1.077742,-0.32243 1.077742,-0.9838 0,-0.54978 -0.361787,-0.71926 -1.066317,-0.85566 -0.213264,-0.0414 -0.403678,-0.0786 -0.403678,-0.31416 0,-0.26869 0.24373,-0.35963 0.46461,-0.35963 0.24373,0 0.506501,0.11161 0.658832,0.28109 l 0.316086,-0.4671 c -0.262771,-0.24802 -0.632173,-0.3927 -0.982535,-0.3927 -0.521733,0 -1.028234,0.32656 -1.028234,0.97967 0,0.59524 0.41891,0.76059 0.974919,0.85566 0.266579,0.0455 0.495075,0.0579 0.495075,0.31416 0,0.27696 -0.258962,0.36376 -0.498884,0.36376 -0.258962,0 -0.556008,-0.0992 -0.72738,-0.27282 z" />
      </g>
    </g>
    <text
       xml:space="preserve"
       style="font-style:normal;font-weight:normal;font-size:22.86690903px;line-height:1.25;font-family:sans-serif;letter-spacing:0px;word-spacing:0px;fill:#0066ff;fill-opacity:1;fill-rule:evenodd;stroke:none;stroke-width:0.57167262;"
       x="4.707828"
       y="293.97186"
       id="text1047"><tspan
         sodipodi:role="line"
         id="tspan1045"
         x="4.707828"
         y="293.97186"
         style="font-style:normal;font-variant:normal;font-weight:normal;font-stretch:normal;font-family:Arial;-inkscape-font-specification:Arial;fill:#0066ff;stroke-width:0.57167262;">SCOUTS</tspan></text>
  </g>
</svg>
